<?xml version="1.0" standalone="no"?>
<!DOCTYPE svg PUBLIC "-//W3C//DTD SVG 20010904//EN"
 "http://www.w3.org/TR/2001/REC-SVG-20010904/DTD/svg10.dtd">
<svg version="1.0" xmlns="http://www.w3.org/2000/svg"
 width="512.000000pt" height="512.000000pt" viewBox="0 0 512.000000 512.000000"
 preserveAspectRatio="xMidYMid meet">
<metadata>
Created by potrace 1.11, written by Peter Selinger 2001-2013
</metadata>
<g transform="translate(0.000000,512.000000) scale(0.100000,-0.100000)"
fill="#000000" stroke="none">
<path d="M1975 3437 c-8 -20 -15 -41 -15 -46 0 -17 -31 -21 -148 -21 -64 0
-122 -4 -129 -8 -6 -4 -15 -21 -19 -37 -4 -17 -22 -52 -39 -80 -18 -27 -63
-99 -100 -158 -38 -60 -78 -115 -90 -123 -20 -13 -73 -33 -197 -74 -64 -22
-136 -56 -203 -99 -25 -16 -106 -54 -180 -86 -74 -31 -162 -74 -197 -95 -60
-36 -64 -41 -76 -91 -30 -126 -62 -320 -55 -329 3 -3 139 -5 302 -6 164 0 302
-4 308 -7 6 -4 14 -26 17 -51 6 -38 11 -45 45 -60 22 -11 55 -16 82 -14 41 3
45 6 64 46 39 80 17 75 367 76 172 0 455 -1 628 -3 173 -2 374 1 447 7 93 7
153 7 205 0 40 -6 90 -11 110 -10 39 2 40 0 53 -64 12 -63 65 -85 129 -54 42
20 60 45 68 95 3 19 11 20 199 20 218 0 241 6 254 66 5 22 12 30 23 26 262
-74 292 -80 312 -62 14 12 40 18 95 21 81 3 188 33 227 63 13 10 42 21 66 25
73 11 169 60 191 97 11 19 17 37 13 41 -4 3 -32 13 -62 21 l-55 14 32 16 c18
10 40 31 48 47 15 30 15 30 -12 41 -15 6 -50 14 -78 19 -72 12 -94 23 -108 50
-9 17 -25 28 -52 33 -22 5 -73 18 -112 29 -82 22 -218 37 -342 38 -67 0 -81 3
-73 13 14 16 31 170 29 254 l-2 61 -35 6 c-53 9 -333 7 -540 -3 -102 -6 -318
-15 -480 -21 -336 -13 -605 -27 -699 -36 l-64 -7 4 193 4 194 -40 28 c-22 15
-55 31 -72 34 -31 6 -34 4 -48 -29z m-35 -296 c0 -132 -3 -162 -16 -175 -12
-13 -39 -16 -125 -16 l-109 0 0 123 c0 129 9 178 36 208 15 16 32 19 116 19
l98 0 0 -159z m-304 -97 c-10 -115 -9 -114 -68 -114 -46 0 -49 1 -43 23 10 33
98 177 108 177 6 0 7 -34 3 -86z m252 -163 c11 -6 14 -72 15 -312 l2 -304
-122 -3 -123 -3 5 43 c2 24 7 146 10 273 3 126 8 246 11 267 6 35 9 37 48 41
81 7 141 7 154 -2z m-264 -73 c-3 -29 -9 -165 -12 -303 l-7 -250 -107 -3 -108
-3 0 35 c0 23 -9 45 -27 66 -23 28 -30 31 -62 25 -49 -9 -94 -38 -121 -79
l-23 -33 -271 -6 c-149 -3 -272 -4 -273 -3 -4 4 37 245 46 268 11 29 205 129
332 172 41 14 97 38 125 53 27 15 103 47 169 69 112 39 128 42 233 43 l112 1
-6 -52z m2134 -103 c10 -8 2 -320 -10 -379 -13 -64 -16 -70 -43 -78 -35 -10
-330 -12 -345 -3 -6 3 -10 13 -10 22 0 30 -48 99 -83 117 -66 36 -117 -7 -117
-100 l0 -36 -177 3 c-304 4 -534 0 -594 -12 -43 -9 -97 -9 -211 0 -84 6 -162
14 -173 17 -19 5 -20 14 -20 222 l0 216 40 10 c26 6 97 5 210 -4 94 -7 194
-10 221 -7 27 4 265 10 529 13 264 4 482 8 484 10 5 5 294 -7 299 -11z m442
-31 c103 -17 170 -35 150 -41 -37 -11 -43 -14 -38 -19 3 -2 52 -16 109 -30
117 -28 169 -45 169 -55 0 -16 -102 -49 -150 -49 -70 0 -62 -22 11 -33 30 -4
83 -15 119 -25 58 -17 62 -20 43 -30 -47 -26 -159 -44 -247 -40 -65 2 -90 0
-93 -9 -3 -7 1 -15 9 -18 75 -26 74 -26 53 -37 -24 -14 -143 -16 -207 -4 -45
8 -48 7 -48 -14 0 -14 -5 -20 -12 -17 -7 2 -65 21 -129 42 -95 31 -115 42
-112 56 4 16 9 15 66 -2 87 -26 164 -23 153 7 -4 10 3 14 23 14 16 0 59 11 96
25 37 14 82 25 99 23 22 -2 31 1 31 12 0 8 -7 16 -15 17 -8 1 -41 5 -73 8 -31
4 -55 10 -53 14 3 4 31 13 63 20 95 22 124 32 120 44 -2 7 -13 11 -23 10 -21
-3 -195 15 -234 24 l-25 6 30 13 c17 7 44 13 62 14 33 0 52 16 37 30 -5 5 -82
14 -171 21 -121 9 -163 15 -163 25 0 25 194 24 350 -2z"/>
<path d="M1794 2745 c-11 -28 4 -45 40 -45 43 0 54 15 30 41 -20 23 -62 25
-70 4z"/>
</g>
</svg>
